<svg width="32" height="32" viewBox="0 0 32 32" fill="none" xmlns="http://www.w3.org/2000/svg">
<g clip-path="url(#clip0_2465_331)">
<path d="M7 6.4C7 5.07452 8.07452 4 9.4 4H17.2L25 11.8V25.6C25 26.9255 23.9255 28 22.6 28H9.4C8.07452 28 7 26.9255 7 25.6V6.4Z" fill="#5E5CE6"/>
<path d="M18.9992 11.8H24.9992L17.1992 4V10C17.1992 10.9941 18.0051 11.8 18.9992 11.8Z" fill="white" fill-opacity="0.5"/>
</g>
<path d="M11.8206 23.7969V19.4332H14.7098V20.1939H12.7431V21.2337H14.518V21.9943H12.7431V23.7969H11.8206ZM16.1329 19.4332V23.7969H15.2103V19.4332H16.1329ZM19.6654 20.8438C19.6356 20.7401 19.5937 20.6484 19.5397 20.5689C19.4857 20.4879 19.4197 20.4197 19.3416 20.3643C19.2649 20.3075 19.1768 20.2642 19.0774 20.2344C18.9793 20.2045 18.8707 20.1896 18.7514 20.1896C18.5283 20.1896 18.3323 20.245 18.1633 20.3558C17.9957 20.4666 17.865 20.6278 17.7712 20.8395C17.6775 21.0497 17.6306 21.3068 17.6306 21.6108C17.6306 21.9148 17.6768 22.1733 17.7691 22.3864C17.8614 22.5994 17.9921 22.7621 18.1612 22.8743C18.3302 22.9851 18.5298 23.0405 18.7599 23.0405C18.9687 23.0405 19.147 23.0036 19.2947 22.9297C19.4438 22.8544 19.5575 22.7486 19.6356 22.6122C19.7151 22.4759 19.7549 22.3146 19.7549 22.1286L19.9424 22.1562H18.8174V21.4616H20.6434V22.0114C20.6434 22.3949 20.5624 22.7244 20.4005 23C20.2386 23.2741 20.0156 23.4858 19.7315 23.6349C19.4474 23.7827 19.1221 23.8565 18.7556 23.8565C18.3465 23.8565 17.9872 23.7663 17.6775 23.5859C17.3678 23.4041 17.1264 23.1463 16.9531 22.8125C16.7812 22.4773 16.6953 22.0795 16.6953 21.6193C16.6953 21.2656 16.7464 20.9503 16.8487 20.6733C16.9524 20.3949 17.0972 20.1591 17.2833 19.9659C17.4694 19.7727 17.686 19.6257 17.9332 19.5249C18.1803 19.424 18.4481 19.3736 18.7364 19.3736C18.9836 19.3736 19.2137 19.4098 19.4268 19.4822C19.6399 19.5533 19.8288 19.6541 19.9935 19.7848C20.1597 19.9155 20.2954 20.071 20.4005 20.2514C20.5056 20.4304 20.5731 20.6278 20.6029 20.8438H19.6654Z" fill="white" fill-opacity="0.96"/>
<defs>
<clipPath id="clip0_2465_331">
<rect width="18" height="24" fill="white" transform="translate(7 4)"/>
</clipPath>
</defs>
</svg>
