<svg width="32" height="32" viewBox="0 0 32 32" fill="none" xmlns="http://www.w3.org/2000/svg">
<g clip-path="url(#clip0_2447_17146)">
<path d="M7.75 6.4C7.75 5.48873 8.48873 4.75 9.4 4.75H16.2059C16.6435 4.75 17.0632 4.92384 17.3726 5.23327L23.7667 11.6274C24.0762 11.9368 24.25 12.3565 24.25 12.7941V25.6C24.25 26.5113 23.5113 27.25 22.6 27.25H9.4C8.48873 27.25 7.75 26.5113 7.75 25.6V6.4Z" stroke="white" stroke-opacity="0.11" stroke-width="1.5"/>
<path d="M7.75 6.4C7.75 5.48873 8.48873 4.75 9.4 4.75H16.2059C16.6435 4.75 17.0632 4.92384 17.3726 5.23327L23.7667 11.6274C24.0762 11.9368 24.25 12.3565 24.25 12.7941V25.6C24.25 26.5113 23.5113 27.25 22.6 27.25H9.4C8.48873 27.25 7.75 26.5113 7.75 25.6V6.4Z" stroke="#5E5E5E" stroke-opacity="0.21" stroke-width="1.5" style="mix-blend-mode:color-dodge"/>
</g>
<path d="M10.9202 23.7969V19.4332H12.6418C12.9727 19.4332 13.2547 19.4964 13.4876 19.6229C13.7206 19.7479 13.8981 19.9219 14.0203 20.1449C14.1439 20.3665 14.2057 20.6222 14.2057 20.9119C14.2057 21.2017 14.1432 21.4574 14.0182 21.679C13.8932 21.9006 13.7121 22.0732 13.4748 22.1967C13.2391 22.3203 12.9535 22.3821 12.6183 22.3821H11.521V21.6428H12.4692C12.6467 21.6428 12.793 21.6122 12.9081 21.5511C13.0246 21.4886 13.1112 21.4027 13.168 21.2933C13.2263 21.1825 13.2554 21.0554 13.2554 20.9119C13.2554 20.767 13.2263 20.6406 13.168 20.5327C13.1112 20.4233 13.0246 20.3388 12.9081 20.2791C12.7916 20.218 12.6439 20.1875 12.4649 20.1875H11.8427V23.7969H10.9202ZM16.2318 23.7969H14.6849V19.4332H16.2446C16.6835 19.4332 17.0613 19.5206 17.3781 19.6953C17.6949 19.8686 17.9385 20.1179 18.1089 20.4432C18.2808 20.7685 18.3667 21.1577 18.3667 21.6108C18.3667 22.0653 18.2808 22.456 18.1089 22.7827C17.9385 23.1094 17.6934 23.3601 17.3738 23.5348C17.0557 23.7095 16.675 23.7969 16.2318 23.7969ZM15.6075 23.0064H16.1934C16.4662 23.0064 16.6956 22.9581 16.8817 22.8615C17.0692 22.7635 17.2098 22.6122 17.3035 22.4077C17.3987 22.2017 17.4463 21.9361 17.4463 21.6108C17.4463 21.2884 17.3987 21.0249 17.3035 20.8203C17.2098 20.6158 17.0699 20.4652 16.8838 20.3686C16.6977 20.272 16.4683 20.2237 16.1956 20.2237H15.6075V23.0064ZM18.9302 23.7969V19.4332H21.8194V20.1939H19.8527V21.2337H21.6276V21.9943H19.8527V23.7969H18.9302Z" fill="white" fill-opacity="0.96"/>
<defs>
<clipPath id="clip0_2447_17146">
<rect width="18" height="24" fill="white" transform="translate(7 4)"/>
</clipPath>
</defs>
</svg>
