<svg width="16" height="16" viewBox="0 0 16 16" fill="none" xmlns="http://www.w3.org/2000/svg">
<g id="file-upload-01">
<path id="Icon" d="M13.3327 8.33594V4.53594C13.3327 3.41583 13.3327 2.85578 13.1147 2.42796C12.9229 2.05163 12.617 1.74567 12.2407 1.55392C11.8128 1.33594 11.2528 1.33594 10.1327 1.33594H5.86602C4.74591 1.33594 4.18586 1.33594 3.75803 1.55392C3.38171 1.74567 3.07575 2.05163 2.884 2.42796C2.66602 2.85578 2.66602 3.41583 2.66602 4.53594V11.4693C2.66602 12.5894 2.66602 13.1494 2.884 13.5773C3.07575 13.9536 3.38171 14.2595 3.75803 14.4513C4.18586 14.6693 4.74588 14.6693 5.86592 14.6693H8.33268M9.99935 12.6693L11.9993 10.6693M11.9993 10.6693L13.9993 12.6693M11.9993 10.6693V14.6693" stroke="white" stroke-width="1.5" stroke-linecap="round" stroke-linejoin="round"/>
</g>
</svg>
