<svg width="20" height="20" viewBox="0 0 20 20" fill="none" xmlns="http://www.w3.org/2000/svg">
<g id="message-chat-square" clip-path="url(#clip0_2396_17962)">
<path id="Icon" d="M8.33268 12.4974L5.76997 15.0921C5.4125 15.4541 5.23377 15.635 5.08014 15.6478C4.94686 15.6589 4.81636 15.6053 4.72931 15.5038C4.62898 15.3867 4.62898 15.1324 4.62898 14.6237V13.3237C4.62898 12.8674 4.25524 12.5371 3.80369 12.471V12.471C2.7108 12.3109 1.8525 11.4526 1.69241 10.3597C1.66602 10.1795 1.66602 9.96449 1.66602 9.53443V5.66406C1.66602 4.26393 1.66602 3.56387 1.9385 3.02909C2.17818 2.55868 2.56063 2.17623 3.03104 1.93655C3.56582 1.66406 4.26588 1.66406 5.66602 1.66406H11.8327C13.2328 1.66406 13.9329 1.66406 14.4677 1.93655C14.9381 2.17623 15.3205 2.55868 15.5602 3.02909C15.8327 3.56387 15.8327 4.26393 15.8327 5.66406V9.16406M15.8327 18.3307L14.019 17.0698C13.7641 16.8925 13.6366 16.8039 13.4978 16.7411C13.3747 16.6853 13.2453 16.6447 13.1123 16.6202C12.9625 16.5926 12.8073 16.5926 12.4968 16.5926H10.9993C10.0659 16.5926 9.59922 16.5926 9.2427 16.411C8.92909 16.2512 8.67413 15.9962 8.51434 15.6826C8.33268 15.3261 8.33268 14.8594 8.33268 13.926V11.8307C8.33268 10.8973 8.33268 10.4306 8.51434 10.0741C8.67413 9.76047 8.92909 9.50551 9.2427 9.34572C9.59922 9.16406 10.0659 9.16406 10.9993 9.16406H15.666C16.5994 9.16406 17.0661 9.16406 17.4227 9.34572C17.7363 9.50551 17.9912 9.76047 18.151 10.0741C18.3327 10.4306 18.3327 10.8973 18.3327 11.8307V14.0926C18.3327 14.8692 18.3327 15.2575 18.2058 15.5638C18.0367 15.9722 17.7122 16.2966 17.3038 16.4658C16.9975 16.5926 16.6093 16.5926 15.8327 16.5926V18.3307Z" stroke="white" stroke-opacity="0.96" stroke-width="1.66667" stroke-linecap="round" stroke-linejoin="round"/>
</g>
<defs>
<clipPath id="clip0_2396_17962">
<rect width="20" height="20" fill="white"/>
</clipPath>
</defs>
</svg>
