<svg width="16" height="16" viewBox="0 0 16 16" fill="none" xmlns="http://www.w3.org/2000/svg">
<g id="star-06" clip-path="url(#clip0_2396_14597)">
<g id="Icon">
<path d="M3.00065 14.6693V11.3359M3.00065 4.66927V1.33594M1.33398 3.0026H4.66732M1.33398 13.0026H4.66732M8.66732 2.0026L7.5112 5.00851C7.32319 5.49733 7.22919 5.74174 7.083 5.94733C6.95344 6.12954 6.79425 6.28873 6.61204 6.41829C6.40646 6.56447 6.16205 6.65848 5.67322 6.84649L2.66732 8.0026L5.67323 9.15872C6.16205 9.34673 6.40646 9.44073 6.61204 9.58692C6.79425 9.71648 6.95344 9.87567 7.083 10.0579C7.22919 10.2635 7.32319 10.5079 7.5112 10.9967L8.66732 14.0026L9.82344 10.9967C10.0114 10.5079 10.1054 10.2635 10.2516 10.0579C10.3812 9.87567 10.5404 9.71648 10.7226 9.58692C10.9282 9.44073 11.1726 9.34673 11.6614 9.15872L14.6673 8.0026L11.6614 6.84649C11.1726 6.65848 10.9282 6.56447 10.7226 6.41829C10.5404 6.28873 10.3812 6.12954 10.2516 5.94733C10.1054 5.74174 10.0114 5.49733 9.82344 5.00851L8.66732 2.0026Z" stroke="white" stroke-opacity="0.23" stroke-width="1.33333" stroke-linecap="round" stroke-linejoin="round" style="mix-blend-mode:lighten"/>
<path d="M3.00065 14.6693V11.3359M3.00065 4.66927V1.33594M1.33398 3.0026H4.66732M1.33398 13.0026H4.66732M8.66732 2.0026L7.5112 5.00851C7.32319 5.49733 7.22919 5.74174 7.083 5.94733C6.95344 6.12954 6.79425 6.28873 6.61204 6.41829C6.40646 6.56447 6.16205 6.65848 5.67322 6.84649L2.66732 8.0026L5.67323 9.15872C6.16205 9.34673 6.40646 9.44073 6.61204 9.58692C6.79425 9.71648 6.95344 9.87567 7.083 10.0579C7.22919 10.2635 7.32319 10.5079 7.5112 10.9967L8.66732 14.0026L9.82344 10.9967C10.0114 10.5079 10.1054 10.2635 10.2516 10.0579C10.3812 9.87567 10.5404 9.71648 10.7226 9.58692C10.9282 9.44073 11.1726 9.34673 11.6614 9.15872L14.6673 8.0026L11.6614 6.84649C11.1726 6.65848 10.9282 6.56447 10.7226 6.41829C10.5404 6.28873 10.3812 6.12954 10.2516 5.94733C10.1054 5.74174 10.0114 5.49733 9.82344 5.00851L8.66732 2.0026Z" stroke="#545454" stroke-width="1.33333" stroke-linecap="round" stroke-linejoin="round" style="mix-blend-mode:color-dodge"/>
</g>
</g>
<defs>
<clipPath id="clip0_2396_14597">
<rect width="16" height="16" fill="white"/>
</clipPath>
</defs>
</svg>
