<svg width="12" height="12" viewBox="0 0 12 12" fill="none" xmlns="http://www.w3.org/2000/svg">
<g id="users-check">
<path id="Icon" d="M8 9L9 10L11 8M6 7.5H4C3.06812 7.5 2.60218 7.5 2.23463 7.65224C1.74458 7.85523 1.35523 8.24458 1.15224 8.73463C1 9.10218 1 9.56812 1 10.5M7.75 1.64538C8.48296 1.94207 9 2.66066 9 3.5C9 4.33934 8.48296 5.05793 7.75 5.35462M6.75 3.5C6.75 4.60457 5.85457 5.5 4.75 5.5C3.64543 5.5 2.75 4.60457 2.75 3.5C2.75 2.39543 3.64543 1.5 4.75 1.5C5.85457 1.5 6.75 2.39543 6.75 3.5Z" stroke="white" stroke-opacity="0.96" stroke-width="0.75" stroke-linecap="round" stroke-linejoin="round"/>
</g>
</svg>
