<svg width="16" height="16" viewBox="0 0 16 16" fill="none" xmlns="http://www.w3.org/2000/svg">
<g id="dotpoints-01">
<path id="Icon" d="M14 8.0026L6 8.0026M14 4.0026L6 4.0026M14 12.0026L6 12.0026M3.33333 8.0026C3.33333 8.37079 3.03486 8.66927 2.66667 8.66927C2.29848 8.66927 2 8.37079 2 8.0026C2 7.63441 2.29848 7.33594 2.66667 7.33594C3.03486 7.33594 3.33333 7.63441 3.33333 8.0026ZM3.33333 4.0026C3.33333 4.37079 3.03486 4.66927 2.66667 4.66927C2.29848 4.66927 2 4.37079 2 4.0026C2 3.63441 2.29848 3.33594 2.66667 3.33594C3.03486 3.33594 3.33333 3.63441 3.33333 4.0026ZM3.33333 12.0026C3.33333 12.3708 3.03486 12.6693 2.66667 12.6693C2.29848 12.6693 2 12.3708 2 12.0026C2 11.6344 2.29848 11.3359 2.66667 11.3359C3.03486 11.3359 3.33333 11.6344 3.33333 12.0026Z" stroke="white" stroke-opacity="0.96" stroke-width="1.33333" stroke-linecap="round" stroke-linejoin="round"/>
</g>
</svg>
