<svg width="16" height="16" viewBox="0 0 16 16" fill="none" xmlns="http://www.w3.org/2000/svg">
<g id="Draganddrop" clip-path="url(#clip0_2396_14533)">
<path id="Icon" d="M7.46732 14.6693C6.72058 14.6693 6.34721 14.6693 6.062 14.5239C5.81111 14.3961 5.60714 14.1921 5.47931 13.9413C5.33398 13.656 5.33398 13.2827 5.33398 12.5359V7.46927C5.33398 6.72253 5.33398 6.34917 5.47931 6.06395C5.60714 5.81307 5.81111 5.60909 6.062 5.48126C6.34721 5.33594 6.72058 5.33594 7.46732 5.33594H12.534C13.2807 5.33594 13.6541 5.33594 13.9393 5.48126C14.1902 5.60909 14.3942 5.81307 14.522 6.06395C14.6673 6.34917 14.6673 6.72253 14.6673 7.46927M9.00065 1.3378C9.45069 1.3439 9.72085 1.36995 9.93931 1.48126C10.1902 1.60909 10.3942 1.81307 10.522 2.06395C10.6333 2.2824 10.6594 2.55257 10.6655 3.0026M3.00065 1.3378C2.55062 1.3439 2.28045 1.36995 2.062 1.48126C1.81111 1.60909 1.60714 1.81307 1.47931 2.06395C1.368 2.2824 1.34195 2.55257 1.33585 3.0026M1.33585 9.0026C1.34195 9.45264 1.368 9.7228 1.47931 9.94126C1.60714 10.1921 1.81111 10.3961 2.062 10.5239C2.28045 10.6353 2.55062 10.6613 3.00065 10.6674M1.33398 5.33593V6.66927M6.66728 1.33594H5.33401M11.6692 11.8377L10.7197 14.2793C10.6319 14.5048 10.5881 14.6176 10.5261 14.6493C10.4723 14.6767 10.4085 14.6759 10.3556 14.6471C10.2944 14.6138 10.2535 14.4999 10.1717 14.2721L8.08618 8.46227C8.01929 8.27591 7.98584 8.18273 8.00693 8.12181C8.02527 8.06885 8.0669 8.02723 8.11986 8.00889C8.18078 7.98779 8.27396 8.02124 8.46032 8.08814L14.2701 10.1737C14.4979 10.2555 14.6118 10.2964 14.6451 10.3575C14.6739 10.4105 14.6748 10.4743 14.6473 10.528C14.6157 10.5901 14.5029 10.6339 14.2773 10.7216L11.8358 11.6711C11.7916 11.6883 11.7695 11.6969 11.7509 11.7102C11.7344 11.7219 11.72 11.7364 11.7082 11.7528C11.6949 11.7715 11.6863 11.7935 11.6692 11.8377Z" stroke="white" stroke-opacity="0.96" stroke-width="1.33333" stroke-linecap="round" stroke-linejoin="round"/>
</g>
<defs>
<clipPath id="clip0_2396_14533">
<rect width="16" height="16" fill="white"/>
</clipPath>
</defs>
</svg>
