<svg width="16" height="16" viewBox="0 0 16 16" fill="none" xmlns="http://www.w3.org/2000/svg">
<g id="link-01">
<g id="Icon">
<path d="M8.47106 12.2403L7.52825 13.1831C6.2265 14.4849 4.11595 14.4849 2.8142 13.1831C1.51245 11.8814 1.51245 9.77085 2.8142 8.4691L3.75701 7.52629M12.2423 8.4691L13.1851 7.52629C14.4868 6.22455 14.4868 4.114 13.1851 2.81225C11.8834 1.5105 9.7728 1.5105 8.47106 2.81225L7.52825 3.75506M5.66632 10.331L10.333 5.66435" stroke="white" stroke-opacity="0.23" stroke-linecap="round" stroke-linejoin="round" style="mix-blend-mode:lighten"/>
<path d="M8.47106 12.2403L7.52825 13.1831C6.2265 14.4849 4.11595 14.4849 2.8142 13.1831C1.51245 11.8814 1.51245 9.77085 2.8142 8.4691L3.75701 7.52629M12.2423 8.4691L13.1851 7.52629C14.4868 6.22455 14.4868 4.114 13.1851 2.81225C11.8834 1.5105 9.7728 1.5105 8.47106 2.81225L7.52825 3.75506M5.66632 10.331L10.333 5.66435" stroke="#545454" stroke-linecap="round" stroke-linejoin="round" style="mix-blend-mode:color-dodge"/>
</g>
</g>
</svg>
