<svg width="16" height="16" viewBox="0 0 16 16" fill="none" xmlns="http://www.w3.org/2000/svg">
<g id="settings-02">
<g id="Icon">
<path d="M6.26271 12.9167L6.65234 13.793C6.76817 14.0538 6.95719 14.2755 7.19649 14.431C7.43579 14.5865 7.71508 14.6693 8.00049 14.6693C8.2859 14.6693 8.56519 14.5865 8.80449 14.431C9.04378 14.2755 9.23281 14.0538 9.34864 13.793L9.73827 12.9167C9.87696 12.6057 10.1103 12.3465 10.4049 12.1759C10.7015 12.0049 11.0445 11.932 11.3849 11.9678L12.3383 12.0693C12.622 12.0993 12.9084 12.0463 13.1627 11.9168C13.417 11.7873 13.6283 11.5868 13.7709 11.3396C13.9136 11.0926 13.9817 10.8095 13.9667 10.5245C13.9517 10.2396 13.8543 9.96514 13.6864 9.73446L13.122 8.9589C12.921 8.68069 12.8136 8.34581 12.8153 8.0026C12.8152 7.66033 12.9236 7.32684 13.1249 7.05001L13.6894 6.27446C13.8573 6.04377 13.9547 5.76932 13.9696 5.48439C13.9846 5.19946 13.9166 4.9163 13.7738 4.66927C13.6312 4.42209 13.42 4.2216 13.1657 4.09209C12.9114 3.96258 12.625 3.90962 12.3412 3.93964L11.3879 4.04112C11.0474 4.07688 10.7044 4.00402 10.4079 3.83297C10.1126 3.66144 9.87928 3.40084 9.74123 3.08853L9.34864 2.21223C9.23281 1.95138 9.04378 1.72975 8.80449 1.5742C8.56519 1.41866 8.2859 1.33589 8.00049 1.33594C7.71508 1.33589 7.43579 1.41866 7.19649 1.5742C6.95719 1.72975 6.76817 1.95138 6.65234 2.21223L6.26271 3.08853C6.12466 3.40084 5.89129 3.66144 5.59604 3.83297C5.29952 4.00402 4.95649 4.07688 4.61604 4.04112L3.65975 3.93964C3.37597 3.90962 3.08957 3.96258 2.83529 4.09209C2.58101 4.2216 2.36976 4.42209 2.22715 4.66927C2.08437 4.9163 2.01634 5.19946 2.03133 5.48439C2.04632 5.76932 2.14368 6.04377 2.3116 6.27446L2.87604 7.05001C3.07734 7.32684 3.18574 7.66033 3.18567 8.0026C3.18574 8.34488 3.07734 8.67837 2.87604 8.9552L2.3116 9.73075C2.14368 9.96144 2.04632 10.2359 2.03133 10.5208C2.01634 10.8058 2.08437 11.0889 2.22715 11.3359C2.3699 11.583 2.58117 11.7834 2.83542 11.9129C3.08967 12.0424 3.37599 12.0954 3.65975 12.0656L4.61308 11.9641C4.95353 11.9283 5.29656 12.0012 5.59308 12.1722C5.88943 12.3433 6.12389 12.6039 6.26271 12.9167Z" stroke="white" stroke-opacity="0.23" stroke-width="1.5" stroke-linecap="round" stroke-linejoin="round" style="mix-blend-mode:lighten"/>
<path d="M6.26271 12.9167L6.65234 13.793C6.76817 14.0538 6.95719 14.2755 7.19649 14.431C7.43579 14.5865 7.71508 14.6693 8.00049 14.6693C8.2859 14.6693 8.56519 14.5865 8.80449 14.431C9.04378 14.2755 9.23281 14.0538 9.34864 13.793L9.73827 12.9167C9.87696 12.6057 10.1103 12.3465 10.4049 12.1759C10.7015 12.0049 11.0445 11.932 11.3849 11.9678L12.3383 12.0693C12.622 12.0993 12.9084 12.0463 13.1627 11.9168C13.417 11.7873 13.6283 11.5868 13.7709 11.3396C13.9136 11.0926 13.9817 10.8095 13.9667 10.5245C13.9517 10.2396 13.8543 9.96514 13.6864 9.73446L13.122 8.9589C12.921 8.68069 12.8136 8.34581 12.8153 8.0026C12.8152 7.66033 12.9236 7.32684 13.1249 7.05001L13.6894 6.27446C13.8573 6.04377 13.9547 5.76932 13.9696 5.48439C13.9846 5.19946 13.9166 4.9163 13.7738 4.66927C13.6312 4.42209 13.42 4.2216 13.1657 4.09209C12.9114 3.96258 12.625 3.90962 12.3412 3.93964L11.3879 4.04112C11.0474 4.07688 10.7044 4.00402 10.4079 3.83297C10.1126 3.66144 9.87928 3.40084 9.74123 3.08853L9.34864 2.21223C9.23281 1.95138 9.04378 1.72975 8.80449 1.5742C8.56519 1.41866 8.2859 1.33589 8.00049 1.33594C7.71508 1.33589 7.43579 1.41866 7.19649 1.5742C6.95719 1.72975 6.76817 1.95138 6.65234 2.21223L6.26271 3.08853C6.12466 3.40084 5.89129 3.66144 5.59604 3.83297C5.29952 4.00402 4.95649 4.07688 4.61604 4.04112L3.65975 3.93964C3.37597 3.90962 3.08957 3.96258 2.83529 4.09209C2.58101 4.2216 2.36976 4.42209 2.22715 4.66927C2.08437 4.9163 2.01634 5.19946 2.03133 5.48439C2.04632 5.76932 2.14368 6.04377 2.3116 6.27446L2.87604 7.05001C3.07734 7.32684 3.18574 7.66033 3.18567 8.0026C3.18574 8.34488 3.07734 8.67837 2.87604 8.9552L2.3116 9.73075C2.14368 9.96144 2.04632 10.2359 2.03133 10.5208C2.01634 10.8058 2.08437 11.0889 2.22715 11.3359C2.3699 11.583 2.58117 11.7834 2.83542 11.9129C3.08967 12.0424 3.37599 12.0954 3.65975 12.0656L4.61308 11.9641C4.95353 11.9283 5.29656 12.0012 5.59308 12.1722C5.88943 12.3433 6.12389 12.6039 6.26271 12.9167Z" stroke="#545454" stroke-width="1.5" stroke-linecap="round" stroke-linejoin="round" style="mix-blend-mode:color-dodge"/>
<path d="M7.9993 10.0026C9.10387 10.0026 9.9993 9.10717 9.9993 8.0026C9.9993 6.89803 9.10387 6.0026 7.9993 6.0026C6.89473 6.0026 5.9993 6.89803 5.9993 8.0026C5.9993 9.10717 6.89473 10.0026 7.9993 10.0026Z" stroke="white" stroke-opacity="0.23" stroke-width="1.5" stroke-linecap="round" stroke-linejoin="round" style="mix-blend-mode:lighten"/>
<path d="M7.9993 10.0026C9.10387 10.0026 9.9993 9.10717 9.9993 8.0026C9.9993 6.89803 9.10387 6.0026 7.9993 6.0026C6.89473 6.0026 5.9993 6.89803 5.9993 8.0026C5.9993 9.10717 6.89473 10.0026 7.9993 10.0026Z" stroke="#545454" stroke-width="1.5" stroke-linecap="round" stroke-linejoin="round" style="mix-blend-mode:color-dodge"/>
</g>
</g>
</svg>
